<?xml version="1.0" encoding="UTF-8"?>
<svg width="47.531" height="29.942" version="1.1" viewBox="0 0 12.576 7.9221" xmlns="http://www.w3.org/2000/svg" xmlns:cc="http://creativecommons.org/ns#" xmlns:dc="http://purl.org/dc/elements/1.1/" xmlns:rdf="http://www.w3.org/1999/02/22-rdf-syntax-ns#" xmlns:xlink="http://www.w3.org/1999/xlink">
 <defs>
  <linearGradient id="linearGradient4717" x1="348.44" x2="476.22" y1="-505.63" y2="-505.63" gradientTransform="matrix(.70711 .70711 .70711 -.70711 478.3 -143.47)" gradientUnits="userSpaceOnUse" xlink:href="#linearGradient4279"/>
  <linearGradient id="linearGradient4279">
   <stop stop-color="#ec6b00" offset="0"/>
   <stop stop-color="#f4a200" offset="1"/>
  </linearGradient>
  <linearGradient id="linearGradient4709" x1="300.5" x2="359.7" y1="-503.92" y2="-503.92" gradientTransform="translate(241.68,360.63)" gradientUnits="userSpaceOnUse" xlink:href="#linearGradient4279"/>
 </defs>
 <metadata>
  <rdf:RDF>
   <cc:Work rdf:about="">
    <dc:format>image/svg+xml</dc:format>
    <dc:type rdf:resource="http://purl.org/dc/dcmitype/StillImage"/>
    <dc:title/>
   </cc:Work>
  </rdf:RDF>
 </metadata>
 <g transform="matrix(.062 0 0 -.062 -20.364 24.731)">
  <g transform="translate(55.056,-170.63)">
   <path d="m367.16 550.81a63.888 63.888 0 0 1 1e-5 -90.351 63.888 63.888 0 0 1 90.351 0 63.888 63.888 0 0 1 1e-5 90.351 63.888 63.888 0 0 1-90.351 0zm24.244-24.244a29.602 29.602 0 0 0 41.863 0 29.602 29.602 0 0 0 0-41.863 29.602 29.602 0 0 0-41.863 0 29.602 29.602 0 0 0-1e-5 41.863z" fill="url(#linearGradient4717)"/>
   <circle transform="matrix(.70711 .70711 .70711 -.70711 0 0)" cx="571.78" cy="-143.29" r="29.602" fill="url(#linearGradient4709)"/>
  </g>
 </g>
</svg>
